Motion_kv04_l
version=1
nRows=10
nColumns=43
inDegrees=yes
endheader
time	pelvis_tilt	pelvis_list	pelvis_rotation	pelvis_tx	pelvis_ty	pelvis_tz	hip_flexion_r	hip_adduction_r	hip_rotation_r	knee_angle_r	ankle_angle_r	subtalar_angle_r	mtp_angle_r	hip_flexion_l	hip_adduction_l	hip_rotation_l	knee_angle_l	ankle_angle_l	subtalar_angle_l	mtp_angle_l	lumbar_extension	lumbar_bending	lumbar_rotation	neck_flexion	neck_lateral_bending	neck_rotation	arm_flex_r	arm_add_r	arm_rot_r	elbow_flex_r	pro_sup_r	wrist_flex_r	wrist_dev_r	hand_finger_flex_r	arm_flex_l	arm_add_l	arm_rot_l	elbow_flex_l	pro_sup_l	wrist_flex_l	wrist_dev_l	hand_finger_flex_l
      0.40000000	      8.88397000	    -58.99472863	     99.95427916	      0.02945392	      1.23288671	      1.44207435	     51.10992609	      0.95504977	     -9.78128374	    -32.26973107	    -17.94953298	    -17.58793538	    -21.26679740	     51.68327624	     -1.81943200	      3.04636023	    -41.20932828	      9.78063095	     -9.86874007	    -20.89596650	    -25.76447231	      1.36326164	      0.77864206	     53.12740744	     -0.90698722	      1.89350866	    385.04057629	    -45.53323064	    366.82667261	     94.68343850	    150.95596778	    -52.25496006	    -13.80485468	     86.43637933	     33.89109706	    -49.61660272	     19.12975450	     95.93234251	    154.79724248	    -65.60358426	     -5.68254685	     90.00021046
      0.40250000	      9.19088856	    -59.32057743	    100.10769702	      0.02962415	      1.23808892	      1.43992592	     52.19588250	      0.99495031	     -9.77887109	    -34.22234722	    -16.35493321	    -16.94508755	    -21.16498090	     52.72241649	     -1.93596801	      3.07739642	    -43.05554574	     10.71890561	     -9.63571520	    -20.65953601	    -25.88166753	      1.50443581	      0.69766199	     53.32075937	     -0.85494904	      2.14584322	    386.09606303	    -44.84666431	    367.48066381	     93.73113981	    151.36323423	    -52.94153608	    -14.11398269	     86.73479431	     33.92629460	    -49.33132118	     18.85391884	     95.20112629	    155.01553671	    -66.46405952	     -5.96868824	     90.00021046
      0.40500000	      9.43367706	    -59.47056939	    100.26037371	      0.02953108	      1.24357112	      1.43749654	     53.08353457	      1.00574191	     -9.76431932	    -36.12880436	    -15.06514271	    -16.73140697	    -21.13954050	     53.59159437	     -1.96968550	      3.13881866	    -44.93381498	     11.50025161	     -9.69095866	    -20.42086408	    -26.29783779	      1.65892307	      0.64225475	     53.83740068	     -0.82330373	      2.33760671	    387.05659058	    -44.35185525	    367.98501462	     92.96491478	    151.55249322	    -53.62329161	    -14.35501297	     87.10685832	     34.03507090	    -49.05733913	     18.57248272	     94.69107200	    155.09941708	    -67.14218522	     -6.21806663	     90.00021046
      0.40750000	      9.55627656	    -59.37607343	    100.21254985	      0.02968069	      1.24937797	      1.43452594	     53.71079702	      1.11568255	     -9.72225375	    -38.00678359	    -14.10503719	    -17.13814250	    -21.05099570	     54.11275323	     -2.04040165	      3.24474303	    -46.70687973	     12.17981333	     -9.99333193	    -20.31561744	    -27.05048665	      1.71280183	      0.82749824	     54.54663699	     -0.85420189	      2.39724078	    387.68359826	    -43.94345598	    368.03295861	     92.51836103	    151.68548981	    -53.65723289	    -14.43650278	     87.11240428	     34.47475983	    -48.71536344	     18.51709293	     94.23633259	    155.17389140	    -67.16185627	     -6.28128749	     90.00021046
      0.41000000	      9.77973744	    -59.67798480	    100.28753471	      0.02981792	      1.25457146	      1.43238313	     54.80001730	      1.12158462	     -9.72379635	    -39.99612203	    -12.52346958	    -16.66821607	    -20.94217634	     55.15882910	     -2.12280509	      3.21517232	    -48.64436781	     13.11141902	     -9.77498847	    -20.11215998	    -27.19665554	      1.76778670	      0.92478179	     54.78150293	     -0.83022833	      2.52885779	    388.36995322	    -43.30719210	    368.17107872	     91.68935094	    152.09179565	    -54.18530366	    -14.76408526	     87.22944782	     34.87763244	    -48.27657716	     18.56686001	     93.41074970	    155.40998725	    -67.67350558	     -6.56619470	     90.00021046
      0.41250000	      9.95294477	    -59.82603243	    100.32711204	      0.02992672	      1.25996274	      1.42995851	     55.73225355	      1.15005887	     -9.71386952	    -41.97115443	    -11.19219433	    -16.64299905	    -20.86725738	     56.02588691	     -2.16871971	      3.24339815	    -50.55712284	     13.89535540	     -9.85235033	    -19.94514113	    -27.59632146	      1.80795788	      1.07573140	     55.27495600	     -0.84511713	      2.60834473	    388.95486806	    -42.81973565	    368.19742126	     91.05705762	    152.31857992	    -54.60274672	    -14.98862442	     87.33965178	     35.33828252	    -47.84868122	     18.59108392	     92.78114031	    155.54068652	    -68.09872274	     -6.77060908	     90.00021046
      0.41500000	     10.12300921	    -60.00215010	    100.35289527	      0.03005739	      1.26526700	      1.42764416	     56.73090893	      1.17081599	     -9.70234300	    -43.98882145	     -9.89823263	    -16.55483029	    -20.80271893	     56.94927911	     -2.22451806	      3.25674192	    -52.51610097	     14.65210285	     -9.84859154	    -19.78341707	    -27.94517063	      1.82938043	      1.25011867	     55.70881378	     -0.82935535	      2.66826125	    389.50366366	    -42.32792783	    368.16946925	     90.43608840	    152.57452370	    -55.03965941	    -15.25080898	     87.44297494	     35.85161583	    -47.41162967	     18.67531567	     92.08978393	    155.69772890	    -68.53275336	     -7.00897424	     90.00021046
      0.41750000	     10.23279727	    -59.93133719	    100.31066352	      0.03023600	      1.27085830	      1.42489848	     57.47071463	      1.25470419	     -9.65711266	    -45.98414611	     -8.90421775	    -16.92157346	    -20.71484834	     57.59401822	     -2.27458600	      3.32860846	    -54.44978640	     15.27282499	    -10.08296281	    -19.68886643	    -28.64636229	      1.83724387	      1.44759082	     56.34562180	     -0.80857150	      2.70256878	    390.04997104	    -41.97897024	    368.12767651	     90.02977642	    152.72324389	    -55.12486091	    -15.36141483	     87.43698342	     36.35419814	    -47.04688152	     18.63388848	     91.62406037	    155.78357612	    -68.62134878	     -7.09445019	     90.00021046
      0.42000000	     10.42140800	    -60.36991388	    100.34902728	      0.03042768	      1.27575051	      1.42311767	     58.77460476	      1.24091399	     -9.61859387	    -48.03027425	     -7.35434910	    -16.52171073	    -20.62272678	     58.83786159	     -2.34112630	      3.24619884	    -56.46596332	     16.14714270	     -9.79909757	    -19.51507000	    -28.60362737	      1.79653850	      1.63854872	     56.54256083	     -0.76769714	      2.76795464	    390.50156532	    -41.33293892	    367.96055599	     89.20991813	    153.13011691	    -55.71894338	    -15.74709132	     87.50155814	     36.92118664	    -46.47715716	     18.82230634	     90.71025678	    156.08470696	    -69.22169094	     -7.47484450	     90.00021046
      0.42250000	     10.52544759	    -60.31050416	    100.30164880	      0.03059626	      1.28119200	      1.42046387	     59.55845889	      1.33928814	     -9.53845171	    -50.05592268	     -6.28433830	    -16.95465259	    -20.53058129	     59.51711059	     -2.37843557	      3.33228189	    -58.42224415	     16.75810488	    -10.04264855	    -19.42242078	    -29.27258230	      1.78662185	      1.84804538	     57.16711870	     -0.73560100	      2.79136702	    391.02309350	    -40.99284903	    367.87713305	     88.81800007	    153.25652522	    -55.82366308	    -15.86284781	     87.50018165	     37.42170889	    -46.07681497	     18.76852464	     90.24005607	    156.16248087	    -69.34256798	     -7.56653000	     90.00021046
